<?xml version="1.0" encoding="UTF-8"?>
<!-- Generator: visioncortex VTracer 0.6.1 -->
<svg version="1.1" xmlns="http://www.w3.org/2000/svg" width="1280" height="353">
<path d="M0 0 C422.4 0 844.8 0 1280 0 C1280 116.49 1280 232.98 1280 353 C857.6 353 435.2 353 0 353 C0 236.51 0 120.02 0 0 Z " fill="#F9FCFE" transform="translate(0,0)"/>
<path d="M0 0 C4.53897705 -0.02465392 9.07791543 -0.04283789 13.61694336 -0.05493164 C15.16219766 -0.0599714 16.70744716 -0.0668032 18.25268555 -0.07543945 C20.46925029 -0.08752076 22.68575218 -0.09323173 24.90234375 -0.09765625 C25.5971434 -0.10281754 26.29194305 -0.10797882 27.00779724 -0.11329651 C28.6722933 -0.11349277 30.33665499 -0.06189129 32 0 C33.97245675 1.97245675 33.23136351 5.7975437 33.28125 8.5 C33.29965942 9.25087891 33.31806885 10.00175781 33.33703613 10.77539062 C33.41597077 14.00115253 33.48353963 17.22713168 33.55224609 20.453125 C33.60386873 22.80219189 33.66116097 25.15107307 33.71875 27.5 C33.73911316 28.60311523 33.73911316 28.60311523 33.7598877 29.72851562 C33.54467345 33.1546949 33.54467345 33.1546949 35 36 C38.82533783 36.23743476 42.64419229 36.39667966 46.47460938 36.51757812 C47.27576172 36.55173828 48.07691406 36.58589844 48.90234375 36.62109375 C49.63960693 36.6461499 50.37687012 36.67120605 51.13647461 36.69702148 C53 37 53 37 55 39 C55.76259418 46.93614965 54.75273746 55.09625665 54 63 C47.4 63 40.8 63 34 63 C33.953954 67.73250551 33.91416958 72.46422588 33.89013672 77.19677734 C33.88011237 78.80487713 33.86648934 80.41295885 33.84912109 82.02099609 C33.82471512 84.33956376 33.81348114 86.65788929 33.8046875 88.9765625 C33.79436493 89.68930328 33.78404236 90.40204407 33.77340698 91.13638306 C33.77228159 96.20418208 34.37337 100.61260766 37.26953125 104.86328125 C39.77500016 106.50908588 41.72565587 106.29203568 44.6875 106.1875 C46.17830078 106.14689453 46.17830078 106.14689453 47.69921875 106.10546875 C48.45847656 106.07066406 49.21773437 106.03585938 50 106 C50.66770879 108.00312637 51.3341438 110.00668195 51.99609375 112.01171875 C52.76234713 114.2925897 53.54770968 116.56300042 54.34765625 118.83203125 C54.81512187 120.17968136 55.28256975 121.52733762 55.75 122.875 C55.98485107 123.52927979 56.21970215 124.18355957 56.46166992 124.85766602 C58.11278493 129.6616452 58.11278493 129.6616452 57 133 C46.10700609 138.44649696 33.86140896 139.87798895 21.921875 137.34765625 C19.42108319 136.43148566 17.27807348 135.3766775 15 134 C14.20078125 133.525625 13.4015625 133.05125 12.578125 132.5625 C4.67118233 127.18784616 1.70731178 120.09616737 -0.08984375 110.93359375 C-1.52993497 101.7734259 -1.46758231 92.50156881 -1.625 83.25 C-1.66326544 81.37758771 -1.70232184 79.50519141 -1.7421875 77.6328125 C-1.83724004 73.08867451 -1.92160338 68.54445461 -2 64 C-2.77085937 63.95101562 -3.54171875 63.90203125 -4.3359375 63.8515625 C-5.33882812 63.77679688 -6.34171875 63.70203125 -7.375 63.625 C-8.87160156 63.52058594 -8.87160156 63.52058594 -10.3984375 63.4140625 C-13 63 -13 63 -15 61 C-15.30675232 58.10032243 -15.51173371 55.28216822 -15.625 52.375 C-15.66367187 51.57320312 -15.70234375 50.77140625 -15.7421875 49.9453125 C-15.83653931 47.96392444 -15.91936215 45.98199355 -16 44 C-16.66 43.67 -17.32 43.34 -18 43 C-18.495 44.175625 -18.99 45.35125 -19.5 46.5625 C-21.39547665 50.83399667 -23.53097788 54.95258718 -25.75 59.0625 C-28.43842293 64.04378928 -31.05451115 69.04983672 -33.5625 74.125 C-39.55840396 86.22713378 -45.83075719 98.19031969 -52.05358887 110.17681885 C-52.96605578 111.93460932 -53.87805644 113.69264181 -54.79003906 115.45068359 C-60.57840666 126.60785264 -66.37836387 137.75856506 -72.24975586 148.87231445 C-74.56753272 153.26302263 -76.86450265 157.66377335 -79.14453125 162.07421875 C-79.9497522 163.62858643 -79.9497522 163.62858643 -80.77124023 165.21435547 C-81.81402299 167.22880412 -82.85405255 169.24468117 -83.89086914 171.26220703 C-84.3677417 172.18243652 -84.84461426 173.10266602 -85.3359375 174.05078125 C-85.75407715 174.86200439 -86.1722168 175.67322754 -86.60302734 176.5090332 C-87.06402832 177.33105225 -87.5250293 178.15307129 -88 179 C-88.53995605 180.07999268 -89.07991211 181.15998535 -89.63623047 182.27270508 C-92 185 -92 185 -95.85058594 185.68115234 C-97.39550805 185.68020681 -98.94064216 185.64655219 -100.484375 185.5859375 C-101.29996887 185.57744781 -102.11556274 185.56895813 -102.95587158 185.56021118 C-105.55527098 185.52668119 -108.15154221 185.45141109 -110.75 185.375 C-112.51427804 185.34489949 -114.27860482 185.31752382 -116.04296875 185.29296875 C-120.36318041 185.22689224 -124.68106033 185.1233802 -129 185 C-130 182 -130 182 -128.76953125 179.015625 C-128.12767593 177.75502115 -127.474311 176.50024259 -126.8125 175.25 C-126.27761963 174.21129761 -126.27761963 174.21129761 -125.73193359 173.15161133 C-124.49792163 170.76243718 -123.24890101 168.38142193 -122 166 C-121.04748007 164.16572637 -120.09568464 162.33107636 -119.14453125 160.49609375 C-118.13841064 158.55969325 -117.13189361 156.62349867 -116.125 154.6875 C-115.61912354 153.71458008 -115.11324707 152.74166016 -114.59204102 151.73925781 C-112.11026334 146.98300992 -109.59933622 142.24823914 -107.0078125 137.55078125 C-106.30954346 136.27037964 -106.30954346 136.27037964 -105.59716797 134.96411133 C-104.72561853 133.3699561 -103.84254078 131.78202666 -102.94580078 130.2019043 C-100.46082705 125.63138269 -99.31997945 122.33212373 -100 117 C-100.93532897 114.42577838 -100.93532897 114.42577838 -102.4375 112.0625 C-102.99179687 111.10988281 -103.54609375 110.15726562 -104.1171875 109.17578125 C-104.73851562 108.12777344 -105.35984375 107.07976562 -106 106 C-106.99548581 104.23091376 -107.99068112 102.4616543 -108.97973633 100.68896484 C-110.97347975 97.11865813 -112.98871678 93.56044582 -115 90 C-115.48388184 89.14325684 -115.96776367 88.28651367 -116.46630859 87.40380859 C-119.16634243 82.62393827 -121.86778061 77.84486459 -124.5703125 73.06640625 C-126.92151912 68.9088178 -129.27020971 64.74982081 -131.6171875 60.58984375 C-132.20467773 59.54900635 -132.79216797 58.50816895 -133.39746094 57.43579102 C-134.5236333 55.4404797 -135.6493086 53.44488772 -136.77441406 51.44897461 C-137.28456055 50.54542236 -137.79470703 49.64187012 -138.3203125 48.7109375 C-138.76648926 47.91993652 -139.21266602 47.12893555 -139.67236328 46.31396484 C-140.63685455 44.63293354 -141.64071162 42.97429856 -142.66748047 41.33056641 C-144 39 -144 39 -144 37 C-131.13 37 -118.26 37 -105 37 C-94.00694119 56.07229481 -94.00694119 56.07229481 -89.4140625 64.66796875 C-88.83293701 65.75529297 -88.25181152 66.84261719 -87.65307617 67.96289062 C-86.52161714 70.0895892 -85.39662367 72.21974198 -84.27856445 74.35351562 C-83.50452271 75.80854492 -83.50452271 75.80854492 -82.71484375 77.29296875 C-82.26230225 78.1543042 -81.80976074 79.01563965 -81.34350586 79.90307617 C-80.02117315 82.27574284 -80.02117315 82.27574284 -77 84 C-70.23514721 70.65423301 -63.75932088 57.17100035 -57.29345703 43.67871094 C-56.21412738 41.44345141 -55.11007546 39.22015093 -54 37 C-36.51 37 -19.02 37 -1 37 C-1.03957596 25.57150961 -1.03957596 25.57150961 -1.09008789 14.14306641 C-1.09300792 12.71256586 -1.09555628 11.28206449 -1.09765625 9.8515625 C-1.10277222 9.10608154 -1.10788818 8.36060059 -1.11315918 7.5925293 C-1.1140718 2.2281436 -1.1140718 2.2281436 0 0 Z " fill="#39B5FC" transform="translate(965,73)"/>
<path d="M0 0 C2.29709919 1.57775707 3.38560669 2.66809856 5 5 C4.28399671 10.3607352 1.00758302 15.35372477 -1.375 20.125 C-1.87 21.13949219 -2.365 22.15398437 -2.875 23.19921875 C-3.35710937 24.16730469 -3.83921875 25.13539062 -4.3359375 26.1328125 C-4.99408447 27.46143311 -4.99408447 27.46143311 -5.66552734 28.81689453 C-7 31 -7 31 -10 33 C-12.78515625 31.98828125 -12.78515625 31.98828125 -16.0625 30.3125 C-27.15961936 24.96581735 -38.18622501 21.42279203 -50.6328125 24.69140625 C-54.17157189 26.2518555 -55.76856662 27.66731452 -58 30.875 C-59.09341017 34.29190679 -59.60392714 36.45192806 -59 40 C-51.71453023 49.79770073 -37.81752002 54.59551943 -27.03759766 59.30224609 C-19.20527409 62.73894182 -12.42736054 66.32217562 -6 72 C-5.19046875 72.71027344 -4.3809375 73.42054688 -3.546875 74.15234375 C5.43288785 83.07354293 10.05031705 92.05708195 10.375 104.875 C10.06125684 117.45200825 6.64165647 129.264753 -1.9375 138.6875 C-16.71855587 152.51572748 -36.33642314 154.90519334 -55.671875 154.37890625 C-73.4454462 153.53569251 -95.12588216 146.87411784 -108 134 C-107.70676487 129.53014566 -105.54563834 126.02167129 -103.3125 122.25 C-102.95599365 121.63600342 -102.5994873 121.02200684 -102.23217773 120.3894043 C-99.6978122 116.06607485 -97.00827444 111.87282707 -94.12890625 107.76953125 C-92.82715959 105.88755086 -92.82715959 105.88755086 -92 103 C-88.79580811 104.49743641 -85.82681822 106.31302172 -82.82250977 108.17358398 C-76.42684028 112.11906343 -70.19155659 115.68385811 -63 118 C-62.31679688 118.22300781 -61.63359375 118.44601563 -60.9296875 118.67578125 C-52.49091773 121.10813254 -44.03006822 120.6932718 -36 117 C-32.9834252 114.88975037 -31.3698567 112.54823737 -30.49609375 108.890625 C-30.13821686 104.47427191 -30.93535709 101.4678652 -33.4375 97.8125 C-38.40339485 91.97844172 -44.38428761 88.5498229 -51.4375 85.75 C-68.22909061 79.0162076 -85.39582596 70.0038159 -92.953125 52.7109375 C-97.56854438 40.75906792 -96.79841895 29.86297756 -91.74609375 18.07421875 C-84.32082089 3.4462289 -72.16212353 -3.90536411 -57 -9 C-39.00783659 -14.15614968 -16.11690131 -8.6369371 0 0 Z " fill="#39B5FC" transform="translate(119,57)"/>
<path d="M0 0 C2.41356353 1.4146164 4.78056291 2.87277345 7.125 4.3984375 C7.104375 3.4290625 7.08375 2.4596875 7.0625 1.4609375 C7.125 -1.6015625 7.125 -1.6015625 8.125 -2.6015625 C10.48898468 -2.7023437 12.82311311 -2.74129465 15.1875 -2.734375 C15.89398682 -2.73533173 16.60047363 -2.73628845 17.32836914 -2.73727417 C18.82470793 -2.73795583 20.32104967 -2.73610255 21.81738281 -2.73193359 C24.11530157 -2.72658507 26.41302486 -2.73187901 28.7109375 -2.73828125 C30.16145877 -2.73762047 31.61197991 -2.7363393 33.0625 -2.734375 C33.7541626 -2.73639923 34.4458252 -2.73842346 35.15844727 -2.74050903 C40.01004776 -2.71651474 40.01004776 -2.71651474 41.125 -1.6015625 C41.22029612 1.41193988 41.25051904 4.40247856 41.23852539 7.41625977 C41.23867142 8.36250214 41.23881744 9.30874451 41.2389679 10.28366089 C41.23826836 13.42741142 41.23047409 16.57110351 41.22265625 19.71484375 C41.22079221 21.88817818 41.21936824 24.06151302 41.21836853 26.23484802 C41.21454221 31.96744945 41.20471097 37.70002573 41.19366455 43.43261719 C41.18345287 49.27734029 41.17887143 55.12206743 41.17382812 60.96679688 C41.1630888 72.44402327 41.14549108 83.92122436 41.125 95.3984375 C30.565 95.3984375 20.005 95.3984375 9.125 95.3984375 C9.125 94.7384375 9.125 94.0784375 9.125 93.3984375 C8.465 93.0684375 7.805 92.7384375 7.125 92.3984375 C7.455 90.7484375 7.785 89.0984375 8.125 87.3984375 C4.21927217 87.97706385 2.11439189 89.91942959 -0.875 92.3984375 C-7.9691445 97.32492674 -15.67723946 98.94876624 -24.1875 98.8359375 C-25.01781738 98.82618896 -25.84813477 98.81644043 -26.70361328 98.80639648 C-40.98103237 98.39692355 -52.90495016 91.85853811 -62.8125 81.7109375 C-72.66296432 69.36110163 -74.8742352 53.52944378 -73.41015625 38.26171875 C-71.39601011 23.7216419 -64.24333387 11.63321851 -52.875 2.3984375 C-49.00483196 0.03929224 -45.07493922 -1.90322642 -40.875 -3.6015625 C-39.52728516 -4.16230469 -39.52728516 -4.16230469 -38.15234375 -4.734375 C-25.39486354 -8.11001339 -11.38006197 -6.3394367 0 0 Z " fill="#39B5FD" transform="translate(618.875,112.6015625)"/>
<path d="M0 0 C3.11328125 1.72265625 3.11328125 1.72265625 6.3125 4.0625 C6.87864014 4.47153564 7.44478027 4.88057129 8.02807617 5.30200195 C12.06474547 8.23864596 16.03192374 11.27023985 19.9375 14.37890625 C22.02431814 16.01911369 24.1611586 17.57081403 26.3125 19.125 C30.58937295 22.3603989 33.44039629 24.92147192 34.875 30.25 C32.98677045 38.34241236 24.13856723 43.13577552 17.43359375 47.390625 C13.37471862 50.07482492 9.55561581 53.08274236 5.69921875 56.046875 C0.13772868 60.07110804 0.13772868 60.07110804 -4 59.8125 C-7.25015621 58.93224936 -8.69037938 58.43604196 -11 56 C-11.4311622 53.1783807 -11.65026074 50.7002187 -11.6875 47.875 C-11.38121035 43.05175578 -11.38121035 43.05175578 -13 39 C-15.95153271 38.89764101 -18.87983201 38.86164495 -21.831954 38.86692142 C-23.24595475 38.86355689 -23.24595475 38.86355689 -24.68852118 38.86012438 C-27.889237 38.85374093 -31.08991257 38.85455089 -34.29063416 38.85523987 C-36.59171106 38.85210915 -38.89278739 38.84853506 -41.19386297 38.84455246 C-47.54982145 38.8348132 -53.90577094 38.8312973 -60.2617358 38.82870948 C-66.40205418 38.82571516 -72.54236582 38.81706371 -78.6826791 38.8089225 C-91.24975846 38.79238336 -103.81683839 38.78020939 -116.38392448 38.77020454 C-134.33167509 38.75581177 -152.27940976 38.73305334 -170.22714903 38.70853943 C-177.42313076 38.69874773 -184.61911285 38.6892275 -191.81509495 38.67970943 C-192.61463352 38.67865067 -193.41417208 38.6775919 -194.23793909 38.67650105 C-213.28158916 38.65133462 -232.32524215 38.62884553 -251.36889648 38.60717773 C-252.2024743 38.6062273 -253.03605212 38.60527686 -253.89488987 38.60429762 C-273.34771071 38.58214039 -292.80053241 38.5612647 -312.25335693 38.54260254 C-313.09018372 38.54179879 -313.9270105 38.54099504 -314.78919568 38.54016693 C-319.0088294 38.53611616 -323.22846314 38.5320746 -327.44809688 38.52803367 C-328.28204092 38.52723468 -329.11598495 38.52643569 -329.97520002 38.52561248 C-331.6584437 38.52400016 -333.34168737 38.52238934 -335.02493105 38.52078002 C-362.80729992 38.49417594 -390.58965431 38.46082571 -418.37200605 38.42000187 C-422.29187865 38.41425142 -426.21175139 38.40859287 -430.13162422 38.40299797 C-430.90314084 38.40189617 -431.67465747 38.40079436 -432.46955338 38.39965917 C-444.91119871 38.3821197 -457.35283977 38.3719763 -469.79449492 38.36474552 C-482.28809492 38.3573699 -494.78167041 38.34299903 -507.27525394 38.32131977 C-514.05003445 38.30977539 -520.82477578 38.30179705 -527.59956741 38.30232811 C-533.79179891 38.30275317 -539.98394698 38.29413494 -546.17615706 38.27807831 C-548.42580762 38.27389465 -550.67546752 38.27314944 -552.92512011 38.27604241 C-555.96424982 38.2794731 -559.00310245 38.27081855 -562.04220486 38.25891972 C-562.93188974 38.26285525 -563.82157462 38.26679077 -564.73821965 38.27084556 C-570.77171291 38.22828709 -570.77171291 38.22828709 -573 36 C-573.1953125 32.9609375 -573.1953125 32.9609375 -573.125 29.375 C-573.10695313 28.18648438 -573.08890625 26.99796875 -573.0703125 25.7734375 C-573.04710937 24.85820312 -573.02390625 23.94296875 -573 23 C-568.97328386 21.65776129 -565.09924449 21.8645448 -560.90074635 21.87695217 C-559.47985271 21.8752214 -559.47985271 21.8752214 -558.03025416 21.87345567 C-554.82596373 21.87078884 -551.62172261 21.87531175 -548.41743469 21.87974548 C-546.109082 21.8793098 -543.80072936 21.87843493 -541.49237698 21.87715632 C-535.12566901 21.87491088 -528.75897772 21.87893332 -522.39227188 21.88393438 C-516.23884752 21.88828447 -510.08542307 21.88697485 -503.93199765 21.88625254 C-491.34075917 21.88493732 -478.74952592 21.88828502 -466.15828896 21.89426994 C-453.68740119 21.90018249 -441.21651561 21.90403498 -428.74562645 21.90512276 C-427.583484 21.90522587 -427.583484 21.90522587 -426.39786393 21.90533106 C-422.4634057 21.90566938 -418.52894747 21.90597077 -414.59448924 21.90625793 C-386.71069642 21.90835958 -358.82690645 21.91510038 -330.94311523 21.92456055 C-303.85066747 21.93374163 -276.75822049 21.94082689 -249.66577148 21.94506836 C-248.83098881 21.94519989 -247.99620613 21.94533141 -247.13612701 21.94546692 C-238.75306532 21.94678542 -230.37000362 21.94806124 -221.98694192 21.94930578 C-204.90895306 21.95184215 -187.83096425 21.9546634 -170.75297546 21.95765686 C-169.57509081 21.9578628 -169.57509081 21.9578628 -168.3734105 21.95807289 C-115.9156058 21.96727699 -63.45780273 21.98314335 -11 22 C-11.05800781 20.74703125 -11.11601563 19.4940625 -11.17578125 18.203125 C-11.22268478 16.5521206 -11.26818431 14.90107589 -11.3125 13.25 C-11.35439453 12.425 -11.39628906 11.6 -11.43945312 10.75 C-11.56316996 4.61364523 -11.56316996 4.61364523 -8.6628418 1.45336914 C-5.36390597 -0.34717775 -3.71167781 -0.60685227 0 0 Z " fill="#010203" transform="translate(603,245)"/>
<path d="M0 0 C1.32451172 0.56074219 1.32451172 0.56074219 2.67578125 1.1328125 C15.89939231 7.19279814 24.94681719 17.08816138 30.5 30.5 C34.71069414 41.88446933 34.71184549 56.1392824 30.25 67.40234375 C23.09171257 82.27815981 11.58833498 91.1578136 -3.4453125 97.10546875 C-4.70988281 97.54826172 -4.70988281 97.54826172 -6 98 C-7.00933594 98.35835938 -8.01867187 98.71671875 -9.05859375 99.0859375 C-26.09164815 103.80077139 -45.21117738 99.97412124 -60.375 91.75 C-73.63113679 83.35024982 -81.44676562 73.49143775 -85 58 C-86.65365668 41.76005326 -83.56894463 27.85132708 -73.328125 14.8828125 C-56.04261685 -4.10169858 -23.25651005 -10.51180513 0 0 Z " fill="#39B5FD" transform="translate(446,111)"/>
<path d="M0 0 C4.68139254 -0.02465288 9.36274759 -0.04283739 14.04418945 -0.05493164 C15.63794614 -0.05997157 17.23169819 -0.0668035 18.82543945 -0.07543945 C21.11150253 -0.08751999 23.39750467 -0.09323155 25.68359375 -0.09765625 C26.40026718 -0.10281754 27.11694061 -0.10797882 27.85533142 -0.11329651 C29.57063672 -0.11349263 31.28581266 -0.06192007 33 0 C34.88902204 1.88902204 34.16468381 5.17862004 34.18945312 7.69116211 C34.19774643 8.39035263 34.20603973 9.08954315 34.21458435 9.80992126 C34.23202084 11.33282613 34.24717772 12.85575836 34.26036072 14.37870598 C34.28132854 16.78636176 34.3083563 19.19388025 34.33703613 21.60145569 C34.39683243 26.71341811 34.44893326 31.8254439 34.5 36.9375 C34.55916455 42.85575653 34.62143553 48.77394561 34.69187927 54.69207954 C34.71851123 57.0685372 34.73929266 59.44500138 34.7598877 61.82151794 C34.77648816 63.27416304 34.79335978 64.72680508 34.81054688 66.17944336 C34.82307495 67.4510582 34.83560303 68.72267303 34.84851074 70.03282166 C34.79755385 72.92929629 34.79755385 72.92929629 36 75 C37.051875 74.13375 37.051875 74.13375 38.125 73.25 C46.25506261 66.88734231 53.43573228 63.42295205 63.75 63.5625 C64.5349585 63.56934814 65.31991699 63.57619629 66.12866211 63.58325195 C72.94398856 63.76967672 78.77907072 65.15455252 85 68 C85.83144531 68.37382813 86.66289062 68.74765625 87.51953125 69.1328125 C96.29872604 73.52968949 101.98466069 80.99781334 105.09518433 90.26173401 C106.02397815 94.09906627 106.24110321 97.37055012 106.22705078 101.31225586 C106.22734283 102.00578156 106.22763489 102.69930725 106.22793579 103.41384888 C106.22655474 105.68097941 106.21105222 107.94777142 106.1953125 110.21484375 C106.191578 111.79667481 106.18873309 113.3785082 106.18673706 114.96034241 C106.17913501 119.10481253 106.15951633 123.2491404 106.1373291 127.39355469 C106.11679647 131.63018876 106.10771954 135.86684603 106.09765625 140.10351562 C106.07626689 148.40240872 106.0421728 156.70118661 106 165 C101.33692986 165.04937279 96.67401127 165.08570627 92.01074219 165.10986328 C90.42380117 165.11993188 88.83687875 165.13358767 87.25 165.15087891 C84.97130753 165.17509001 82.69285994 165.18647422 80.4140625 165.1953125 C79.70255035 165.20563507 78.99103821 165.21595764 78.25796509 165.22659302 C76.50368335 165.22699422 74.75003291 165.12202209 73 165 C70.3564715 162.3564715 70.74413845 161.14151041 70.72875977 157.45214844 C70.71857315 156.29044128 70.70838654 155.12873413 70.69789124 153.93182373 C70.69575119 152.67041565 70.69361115 151.40900757 70.69140625 150.109375 C70.67268689 148.13446354 70.65395062 146.15955207 70.63422298 144.18465042 C70.58882033 139.30662957 70.56530048 134.42846818 70.54370117 129.55029297 C70.53086825 126.81678853 70.51014454 124.08354195 70.48143005 121.35015869 C70.45519129 118.77485843 70.44129328 116.19939632 70.4410553 113.6239624 C70.42104713 111.86248871 70.42104713 111.86248871 70.40063477 110.06542969 C70.39556412 109.0366571 70.39049347 108.00788452 70.38526917 106.94793701 C69.58362472 100.81405051 66.4367274 97.08645945 62 93 C61.67 92.67 61.34 92.34 61 92 C53.58217183 91.27601997 47.12270753 91.44494223 41 96 C36.33355663 100.78924451 34.76609265 105.37245504 34.68115234 111.98364258 C34.66128265 113.16448929 34.64141296 114.345336 34.62094116 115.56196594 C34.60361435 117.45908577 34.60361435 117.45908577 34.5859375 119.39453125 C34.56657135 120.69702316 34.5472052 121.99951508 34.5272522 123.34147644 C34.47605482 126.7920735 34.43636324 130.24270944 34.39910889 133.69348145 C34.35899112 137.21957926 34.30793438 140.74551708 34.2578125 144.27148438 C34.16120027 151.1808725 34.07674878 158.09036346 34 165 C29.33694962 165.07405887 24.67424016 165.12855763 20.01074219 165.16479492 C18.42376749 165.17989814 16.83683463 165.20038223 15.25 165.22631836 C12.97124927 165.26263595 10.69304942 165.27971023 8.4140625 165.29296875 C7.70255035 165.30845261 6.99103821 165.32393646 6.25796509 165.33988953 C4.25634766 165.34057617 4.25634766 165.34057617 1 165 C-1.41210214 161.38184678 -1.23581581 159.79098433 -1.20254517 155.48908997 C-1.20017046 154.82499121 -1.19779576 154.16089245 -1.1953491 153.47666949 C-1.18491598 151.24705265 -1.16003799 149.01783019 -1.13525391 146.78833008 C-1.12482988 145.19185418 -1.11529426 143.59537227 -1.10658264 141.99888611 C-1.08038119 137.66025725 -1.04171544 133.3218175 -1.00085878 128.98330522 C-0.96028103 124.45097173 -0.93110089 119.91856545 -0.90072632 115.38615417 C-0.84145469 106.80134884 -0.77189101 98.2166588 -0.69865549 89.63196248 C-0.61578609 79.85946285 -0.54435085 70.0868902 -0.47388959 60.31429446 C-0.32867482 40.20942204 -0.1690569 20.10468514 0 0 Z " fill="#39B5FC" transform="translate(241,43)"/>
<path d="M0 0 C2.89453125 2.140625 2.89453125 2.140625 5 4 C3.51991304 9.00113594 1.3681664 13.32915597 -1.125 17.875 C-1.49753906 18.56335938 -1.87007812 19.25171875 -2.25390625 19.9609375 C-3.16499526 21.64294798 -4.08190315 23.32180436 -5 25 C-8.30468756 24.40073447 -11.33899015 23.55792644 -14.5 22.4375 C-20.97599627 20.4538615 -28.85464397 19.48188466 -35.3359375 21.85546875 C-37.28241916 22.93418946 -37.28241916 22.93418946 -37.75 25.625 C-37.8325 26.40875 -37.915 27.1925 -38 28 C-35.58311645 28.96760594 -33.16586671 29.93417075 -30.74609375 30.89453125 C-29.09873855 31.54957096 -27.4530857 32.20889862 -25.80859375 32.87109375 C-23.88773292 33.64317828 -21.96303593 34.40576855 -20.03515625 35.16015625 C-9.37351378 39.42755755 -0.29436708 43.26817483 5 54 C8.28482826 62.20074365 8.42845283 72.07974746 5.5 80.4375 C1.34694717 89.11853404 -4.99491084 93.53720014 -13.77734375 96.9921875 C-32.75495196 102.92700316 -51.87933518 101.30394245 -69.75 92.875 C-72.33918783 91.38123779 -74.70704818 89.91079318 -77 88 C-75.54349378 82.89431245 -73.26847809 78.78363634 -70.5 74.3125 C-70.09652344 73.64927734 -69.69304687 72.98605469 -69.27734375 72.30273438 C-67.56672808 69.49969583 -65.82164506 66.7324676 -64 64 C-61.13058221 65.01273569 -58.90578076 66.06894091 -56.4375 67.875 C-50.51992911 71.91663991 -43.05780534 74.51769429 -35.875 73.9375 C-31.78450476 73.41156058 -31.78450476 73.41156058 -30 70 C-30.19477135 67.40304872 -30.51401442 65.65265934 -32.08203125 63.546875 C-34.90865458 61.26715435 -38.16572412 60.10180662 -41.5 58.75 C-51.73083228 54.42285732 -63.48407863 49.10670607 -69.125 38.98046875 C-72.26153759 31.20913677 -71.38443928 22.68694646 -68.1875 15.0625 C-62.91528366 4.59365465 -54.64003837 0.85218078 -44 -3 C-30.35262365 -6.19084683 -12.95791108 -5.60529131 0 0 Z " fill="#39B5FC" transform="translate(1257,111)"/>
<path d="M0 0 C1.0374939 0.00303635 1.0374939 0.00303635 2.09594727 0.00613403 C2.80243408 0.00517731 3.5089209 0.00422058 4.23681641 0.00323486 C5.7331552 0.00255321 7.22949694 0.00440649 8.72583008 0.00857544 C11.02374884 0.01392396 13.32147213 0.00863003 15.61938477 0.00222778 C17.06990603 0.00288857 18.52042718 0.00416974 19.97094727 0.00613403 C20.66260986 0.0041098 21.35427246 0.00208557 22.06689453 0 C26.91849503 0.0239943 26.91849503 0.0239943 28.03344727 1.13894653 C28.15881779 3.48155817 28.21954017 5.79605642 28.23876953 8.14041138 C28.25361043 9.24957334 28.25361043 9.24957334 28.26875114 10.38114262 C28.3006847 12.87068964 28.32534239 15.36025361 28.34985352 17.84988403 C28.37060214 19.618285 28.39169201 21.38668198 28.4131012 23.15507507 C28.46943037 27.94523766 28.51873656 32.73544826 28.56607819 37.52570724 C28.59582903 40.50211781 28.62723414 43.4785066 28.65911865 46.45489502 C28.95400166 74.17254323 29.13815846 101.88986023 29.15638351 129.60910797 C29.15845171 132.0817649 29.16221095 134.55441473 29.16629028 137.02706909 C29.17207948 140.88361327 29.1723488 144.74011695 29.16782951 148.59666252 C29.16679246 150.0052583 29.16734883 151.41385626 29.16958809 152.82245064 C29.1721096 154.72734671 29.16769033 156.63224832 29.1628418 158.53713989 C29.1620462 159.6018602 29.16125061 160.66658051 29.16043091 161.76356506 C29.03344727 164.13894653 29.03344727 164.13894653 28.03344727 165.13894653 C25.68116408 165.25211937 23.35932779 165.3031119 21.00610352 165.30691528 C20.30198837 165.31024368 19.59787323 165.31357208 18.87242126 165.31700134 C17.3802862 165.32207308 15.88813976 165.32440959 14.39599609 165.32424927 C12.10894119 165.32643412 9.82236974 165.34458202 7.53540039 165.36355591 C6.08813642 165.36649007 4.64087015 165.36847471 3.19360352 165.36941528 C2.5071022 165.3766008 1.82060089 165.38378632 1.11329651 165.39118958 C-3.73772904 165.36777022 -3.73772904 165.36777022 -5.96655273 163.13894653 C-6.2154417 160.36563015 -6.2154417 160.36563015 -6.21379089 156.75502014 C-6.21620531 156.09248138 -6.21861972 155.42994261 -6.2211073 154.74732691 C-6.2267639 152.51700945 -6.21806666 150.28697594 -6.20947266 148.05667114 C-6.21054505 146.46195905 -6.21248308 144.86724733 -6.21522522 143.27253723 C-6.22008324 138.93384563 -6.21240629 134.59525647 -6.20227218 130.25657725 C-6.19350857 125.72465675 -6.19524878 121.19273962 -6.19563293 116.66081238 C-6.19469561 109.05023477 -6.18600195 101.43969697 -6.17236328 93.82913208 C-6.1566314 85.01770651 -6.15136533 76.20632455 -6.15209883 67.39488596 C-6.15270822 58.93306173 -6.14761137 50.47125178 -6.13930702 42.00943184 C-6.13576746 38.40138195 -6.13394282 34.79333711 -6.13341331 31.18528557 C-6.13241211 26.94100778 -6.12633386 22.69676691 -6.11624718 18.4525013 C-6.11331517 16.89035391 -6.11209822 15.32820228 -6.11267471 13.76605225 C-6.11316199 11.64262476 -6.10754367 9.51930222 -6.1002655 7.39588928 C-6.09858966 6.20476501 -6.09691381 5.01364073 -6.09518719 3.78642178 C-5.87417892 -0.76223449 -4.08862454 0.02022089 0 0 Z " fill="#39B5FC" transform="translate(500.966552734375,42.861053466796875)"/>
<path d="M0 0 C0.6819191 -0.00095673 1.3638382 -0.00191345 2.06642151 -0.00289917 C3.51148572 -0.00358089 4.95655297 -0.00172719 6.40161133 0.00244141 C8.61611818 0.00778166 10.83042144 0.00250045 13.04492188 -0.00390625 C14.44661503 -0.00324531 15.84830806 -0.00196381 17.25 0 C18.53189209 0.00112793 19.81378418 0.00225586 21.13452148 0.00341797 C24.19140625 0.1328125 24.19140625 0.1328125 26.19140625 1.1328125 C26.19140625 55.2528125 26.19140625 109.3728125 26.19140625 165.1328125 C15.63140625 165.1328125 5.07140625 165.1328125 -5.80859375 165.1328125 C-7.80859375 163.1328125 -7.80859375 163.1328125 -8.05748272 160.35949612 C-8.05693795 159.16799481 -8.05639318 157.97649351 -8.05583191 156.74888611 C-8.05824632 156.08634734 -8.06066074 155.42380858 -8.06314832 154.74119288 C-8.06880491 152.51087542 -8.06010767 150.2808419 -8.05151367 148.05053711 C-8.05258606 146.45582501 -8.0545241 144.8611133 -8.05726624 143.2664032 C-8.06212425 138.9277116 -8.05444731 134.58912243 -8.04431319 130.25044322 C-8.03554958 125.71852272 -8.0372898 121.18660559 -8.03767395 116.65467834 C-8.03673663 109.04410073 -8.02804296 101.43356293 -8.0144043 93.82299805 C-7.99867242 85.01157248 -7.99340635 76.20019052 -7.99413985 67.38875192 C-7.99474923 58.9269277 -7.98965238 50.46511775 -7.98134804 42.00329781 C-7.97780848 38.39524792 -7.97598383 34.78720308 -7.97545433 31.17915154 C-7.97445313 26.93487375 -7.96837488 22.69063288 -7.95828819 18.44636726 C-7.95535618 16.88421988 -7.95413923 15.32206824 -7.95471573 13.75991821 C-7.95520301 11.63649073 -7.94958468 9.51316818 -7.94230652 7.38975525 C-7.94063067 6.19863097 -7.93895483 5.00750669 -7.9372282 3.78028774 C-7.68679904 -1.37389129 -4.4755165 0.00394145 0 0 Z " fill="#39B5FD" transform="translate(786.80859375,42.8671875)"/>
<path d="M0 0 C2.6875 2.046875 2.6875 2.046875 3.6875 5.046875 C2.93066406 7.11572266 2.93066406 7.11572266 1.703125 9.4609375 C1.26226563 10.30398437 0.82140625 11.14703125 0.3671875 12.015625 C-0.10460938 12.8921875 -0.57640625 13.76875 -1.0625 14.671875 C-1.51882813 15.55617187 -1.97515625 16.44046875 -2.4453125 17.3515625 C-5.93083269 23.91965256 -5.93083269 23.91965256 -9.3125 25.046875 C-10.240625 24.7375 -11.16875 24.428125 -12.125 24.109375 C-18.80667253 22.0249216 -27.12589763 21.70675071 -33.58203125 24.421875 C-39.56460079 27.98231696 -44.10459991 33.42317472 -46.3125 40.046875 C-46.94416967 47.61655583 -47.35365095 54.9359838 -42.3125 61.046875 C-34.82515213 68.09459878 -29.72507784 69.32692045 -19.59765625 69.28125 C-15.29207179 68.97407394 -12.19800069 67.87534592 -8.3125 66.046875 C1.49702381 82.99925595 1.49702381 82.99925595 3.6875 88.046875 C2.6875 91.046875 2.6875 91.046875 1.0078125 92.109375 C-1.41474449 93.14391891 -3.84677615 94.11946842 -6.3125 95.046875 C-7.07304688 95.35109375 -7.83359375 95.6553125 -8.6171875 95.96875 C-22.11074449 100.53845301 -39.13537216 99.62218319 -52.0234375 93.828125 C-65.32541465 87.12124577 -76.35251671 77.43882988 -81.5859375 63.30859375 C-85.05313659 52.51553851 -85.27539484 37.75772683 -80.5625 27.3828125 C-80.15 26.61195313 -79.7375 25.84109375 -79.3125 25.046875 C-78.9 24.21414062 -78.4875 23.38140625 -78.0625 22.5234375 C-70.31390636 8.21495492 -58.11803436 0.54607348 -43.3125 -4.953125 C-29.99229967 -8.84728193 -11.88514606 -7.00775121 0 0 Z " fill="#39B5FD" transform="translate(1169.3125,112.953125)"/>
<path d="M0 0 C2.25 1.9375 2.25 1.9375 3.25 4.9375 C2.08804708 7.65459192 0.87178542 10.20516813 -0.5 12.8125 C-0.8609375 13.52019531 -1.221875 14.22789063 -1.59375 14.95703125 C-3.51810206 18.70115101 -5.53149753 22.35700551 -7.75 25.9375 C-9.5753125 25.195 -9.5753125 25.195 -11.4375 24.4375 C-19.36189359 21.84587442 -27.56431373 21.5294144 -35.25 25 C-40.78349247 28.17996158 -43.37069312 32.04752367 -46.0625 37.6875 C-47.55689181 44.75189767 -47.85967804 51.68996976 -44.1484375 58.0859375 C-40.21424879 63.29489127 -35.30403488 67.78090561 -28.75 68.9375 C-22.62995102 69.35039686 -17.52139743 69.18975266 -11.75 66.9375 C-10.43 66.9375 -9.11 66.9375 -7.75 66.9375 C-6.04849272 69.91890213 -4.39407165 72.92407305 -2.75 75.9375 C-2.17636719 76.97003906 -1.60273438 78.00257813 -1.01171875 79.06640625 C-0.17060547 80.64228516 -0.17060547 80.64228516 0.6875 82.25 C1.22246094 83.23613281 1.75742188 84.22226563 2.30859375 85.23828125 C3.25 87.9375 3.25 87.9375 2.87109375 90.125 C0.40927557 92.87749069 -2.68742315 93.61260757 -6.125 94.625 C-6.79789062 94.83705078 -7.47078125 95.04910156 -8.1640625 95.26757812 C-21.83203993 99.5320947 -37.59820549 100.19932455 -50.75 93.9375 C-51.65492188 93.53660156 -52.55984375 93.13570313 -53.4921875 92.72265625 C-66.33183617 86.44832368 -76.78463189 75.83976004 -82.125 62.5625 C-86.11873169 49.35116817 -84.92158706 35.21849187 -78.75 22.9375 C-76.6715279 19.35324644 -74.38900611 16.12845511 -71.75 12.9375 C-71.25113281 12.31488281 -70.75226563 11.69226563 -70.23828125 11.05078125 C-64.90535984 5.07307337 -57.77908143 1.54195666 -50.75 -2.0625 C-49.49123047 -2.75279297 -49.49123047 -2.75279297 -48.20703125 -3.45703125 C-34.29158718 -9.8812901 -12.97554349 -7.83371973 0 0 Z " fill="#39B5FD" transform="translate(222.75,113.0625)"/>
<path d="M0 0 C0.70012207 0.00161133 1.40024414 0.00322266 2.12158203 0.00488281 C7.90033401 0.14060298 13.39995934 1.00286872 18.25 4.375 C19.49316406 6.12182617 19.49316406 6.12182617 20.25 8.375 C19.53076172 10.89282227 19.53076172 10.89282227 18.1796875 13.69140625 C17.695 14.70267578 17.2103125 15.71394531 16.7109375 16.75585938 C16.18757812 17.80580078 15.66421875 18.85574219 15.125 19.9375 C14.62484375 20.99130859 14.1246875 22.04511719 13.609375 23.13085938 C9.25119267 32.06969669 9.25119267 32.06969669 5.25 34.375 C2.734375 33.79296875 2.734375 33.79296875 0 32.5625 C-6.97284965 29.7825957 -11.68703347 29.47956563 -18.9375 31.875 C-24.16237168 34.13830847 -26.54598198 37.21392447 -28.75 42.375 C-29.0907959 43.15907227 -29.4315918 43.94314453 -29.78271484 44.75097656 C-31.18601375 50.0085659 -31.10857014 55.13409522 -31.1640625 60.5546875 C-31.18342865 61.7225882 -31.2027948 62.89048889 -31.2227478 64.09378052 C-31.28237661 67.81244678 -31.32886274 71.53114428 -31.375 75.25 C-31.41319509 77.77605493 -31.45224771 80.30209705 -31.4921875 82.828125 C-31.58806453 89.01030269 -31.67316085 95.19255796 -31.75 101.375 C-36.27065428 101.424377 -40.79115217 101.46070823 -45.31201172 101.48486328 C-46.85045098 101.49493118 -48.38887107 101.50858646 -49.92724609 101.52587891 C-52.13644133 101.55009317 -54.34538395 101.56147491 -56.5546875 101.5703125 C-57.24432587 101.58063507 -57.93396423 101.59095764 -58.64450073 101.60159302 C-60.34800906 101.60199478 -62.05085943 101.49691026 -63.75 101.375 C-66.41283842 98.71216158 -65.9909776 96.72967505 -66.00994873 93.10844421 C-66.00432922 92.22888565 -65.99870972 91.34932709 -65.99291992 90.44311523 C-65.99481827 89.51784027 -65.99671661 88.59256531 -65.99867249 87.63925171 C-66.00238733 84.57061378 -65.99166673 81.50221076 -65.98046875 78.43359375 C-65.97927733 76.30892464 -65.97882371 74.184255 -65.9790802 72.05958557 C-65.97751415 67.6032482 -65.96921466 63.14699103 -65.95581055 58.69067383 C-65.93881024 52.96472484 -65.93499642 47.23886399 -65.93575573 41.51289272 C-65.93548445 37.1250168 -65.93001014 32.73716032 -65.92275429 28.34929085 C-65.91956157 26.23726613 -65.91759881 24.1252392 -65.91686058 22.0132122 C-65.91470396 19.06793294 -65.90597481 16.12274915 -65.89526367 13.17749023 C-65.89571686 12.29590744 -65.89617004 11.41432465 -65.89663696 10.50602722 C-65.86447405 4.48947405 -65.86447405 4.48947405 -64.75 3.375 C-62.38601532 3.2742188 -60.05188689 3.23526785 -57.6875 3.2421875 C-56.98101318 3.24123077 -56.27452637 3.24027405 -55.54663086 3.23928833 C-54.05029207 3.23860667 -52.55395033 3.24045995 -51.05761719 3.24462891 C-48.75969843 3.24997743 -46.46197514 3.24468349 -44.1640625 3.23828125 C-42.71354123 3.23894203 -41.26302009 3.2402232 -39.8125 3.2421875 C-39.1208374 3.24016327 -38.4291748 3.23813904 -37.71655273 3.23605347 C-32.86495224 3.26004776 -32.86495224 3.26004776 -31.75 4.375 C-31.51807135 5.88969448 -31.33784762 7.41254562 -31.1875 8.9375 C-31.10371094 9.76378906 -31.01992188 10.59007813 -30.93359375 11.44140625 C-30.87300781 12.07949219 -30.81242188 12.71757813 -30.75 13.375 C-29.76 13.375 -28.77 13.375 -27.75 13.375 C-27.234375 12.67375 -26.71875 11.9725 -26.1875 11.25 C-19.61487168 3.49766916 -9.97378532 -0.02387787 0 0 Z " fill="#39B5FD" transform="translate(748.75,106.625)"/>
<path d="M0 0 C4.52065428 -0.049377 9.04115217 -0.08570823 13.56201172 -0.10986328 C15.10045098 -0.11993118 16.63887107 -0.13358646 18.17724609 -0.15087891 C20.38644133 -0.17509317 22.59538395 -0.18647491 24.8046875 -0.1953125 C25.49432587 -0.20563507 26.18396423 -0.21595764 26.89450073 -0.22659302 C28.59800906 -0.22699478 30.30085943 -0.12191026 32 0 C34.66283842 2.66283842 34.2409776 4.64532495 34.25994873 8.26655579 C34.25432922 9.14611435 34.24870972 10.02567291 34.24291992 10.93188477 C34.24481827 11.85715973 34.24671661 12.78243469 34.24867249 13.73574829 C34.25238733 16.80438622 34.24166673 19.87278924 34.23046875 22.94140625 C34.22927733 25.06607536 34.22882371 27.190745 34.2290802 29.31541443 C34.22751415 33.7717518 34.21921466 38.22800897 34.20581055 42.68432617 C34.18881024 48.41027516 34.18499642 54.13613601 34.18575573 59.86210728 C34.18548445 64.2499832 34.18001014 68.63783968 34.17275429 73.02570915 C34.16956157 75.13773387 34.16759881 77.2497608 34.16686058 79.3617878 C34.16470396 82.30706706 34.15597481 85.25225085 34.14526367 88.19750977 C34.14571686 89.07909256 34.14617004 89.96067535 34.14663696 90.86897278 C34.11447405 96.88552595 34.11447405 96.88552595 33 98 C30.6243148 98.0883967 28.27791326 98.11530305 25.90234375 98.09765625 C24.83905602 98.09553383 24.83905602 98.09553383 23.75428772 98.09336853 C21.48198288 98.08775443 19.20977525 98.07519963 16.9375 98.0625 C15.40039204 98.05748681 13.86328255 98.05292359 12.32617188 98.04882812 C8.55074358 98.03778042 4.77538829 98.02050641 1 98 C-1.69422708 94.04471552 -1.27351616 89.72077329 -1.24291992 85.13232422 C-1.24481827 84.23762421 -1.24671661 83.34292419 -1.24867249 82.42111206 C-1.25237549 79.46554791 -1.24168402 76.51022978 -1.23046875 73.5546875 C-1.22927673 71.50253325 -1.22882384 69.45037845 -1.2290802 67.39822388 C-1.22751623 63.09926942 -1.21923206 58.80039834 -1.20581055 54.50146484 C-1.18879949 48.98193562 -1.18499687 43.46249785 -1.18575573 37.94294548 C-1.18548429 33.70686973 -1.18000759 29.4708141 -1.17275429 25.23474503 C-1.16956529 23.19890622 -1.16759967 21.16306513 -1.16686058 19.12722397 C-1.16470068 16.28773838 -1.15596465 13.44835127 -1.14526367 10.60888672 C-1.14571686 9.76209351 -1.14617004 8.91530029 -1.14663696 8.04284668 C-1.1144789 2.2289578 -1.1144789 2.2289578 0 0 Z " fill="#3AB5FC" transform="translate(1035,110)"/>
<path d="M0 0 C6.30594733 3.72326204 10.53252832 9.46259441 12.625 16.4375 C13.7465132 24.52485631 12.19769534 30.68553113 7.625 37.4375 C2.74902293 42.44179225 -2.8233019 44.58896526 -9.6875 44.9375 C-16.57716545 44.719832 -22.11647687 42.33846262 -27.26171875 37.7578125 C-31.94511378 32.65483971 -33.8489344 27.60097804 -33.62109375 20.578125 C-32.77556572 13.22337323 -29.94899755 7.3385548 -24.375 2.4375 C-17.42780378 -2.81563719 -7.94637771 -3.51650048 0 0 Z " fill="#FAFDFF" transform="translate(430.375,137.5625)"/>
<path d="M0 0 C5.67165103 3.18892441 11.21224637 8.92223323 13.37109375 15.13671875 C14.48742562 22.21130388 14.42769359 28.93063796 10.6953125 35.19140625 C6.47039251 40.31252139 2.02019831 44.65163891 -4.80859375 45.50390625 C-13.25995581 45.88004476 -19.4693638 43.54366819 -26.1796875 38.50390625 C-30.86678749 34.19742922 -31.94909812 28.93452432 -32.7421875 22.81640625 C-31.92383298 16.0357545 -30.20335721 9.39789061 -24.9921875 4.69140625 C-17.59583223 -0.70762101 -8.93051068 -3.13324697 0 0 Z " fill="#FAFDFF" transform="translate(613.3046875,136.80859375)"/>
<path d="M0 0 C4.55873341 4.34165087 9.2351892 9.21208117 9.828125 15.734375 C9.94603726 22.06233293 9.60029681 27.31900365 5.04296875 32.19140625 C-0.45240819 37.15999324 -5.22759474 39.10117888 -12.67578125 38.9453125 C-18.20298982 38.03344307 -23.10004628 35.00304935 -26.85546875 30.87109375 C-30.48622407 25.64123319 -30.94972223 20.65773813 -30.375 14.5 C-28.30981012 8.30443036 -25.56207246 3.55500046 -19.875 0.1875 C-13.53553693 -2.72105515 -6.34356614 -2.81936273 0 0 Z " fill="#39B5FD" transform="translate(1062.375,50.5)"/>
</svg>
